# xmcd CD database file
#
# Track frame offsets:
#	182
#	14312
#	25182
#	33410
#	43742
#	53345
#	64062
#	80462
#	91785
#	105032
#	113525
#	128652
#	139545
#	150542
#	164090
#	183295
#	201957
#	218250
#	236427
#	249567
#
# Disc length: 3561 seconds
#
# Revision: 3
# Processed by: cddbd v1.5.1PL0 Copyright (c) Steve Scherf et al.
# Submitted via: CDex 1.51
#
DISCID=ed0de714
DTITLE=Francoise Hardy - Blues 1962-1993
DYEAR=1993
DGENRE=Chanson
TTITLE0=Tous Les Garcons Et Les Filles
TTITLE1=Le Temps De L'amour
TTITLE2=Le Premier Bonheur Du Jour
TTITLE3=Mon Amie La Rose
TTITLE4=Ce Petit Coeur
TTITLE5=L'amitie'
TTITLE6=La Maison Ou J'ai Grandi
TTITLE7=Il Est Des Choses
TTITLE8=Je Ne Suis La Poeur Personne
TTITLE9=Comme
TTITLE10=Voila
TTITLE11=Des Ronds Dans L'eau
TTITLE12=Comment Te Dire Adieu?
TTITLE13=La Question
TTITLE14=Message Personnel
TTITLE15=J'ecoute De La Musique Saoule
TTITLE16=V.I.P.
TTITLE17=Partir Quand Meme
TTITLE18=Fais-Moi Une Place
TTITLE19=Profil(Inedit)
EXTD=YEAR: 1993
EXTT0=
EXTT1=
EXTT2=
EXTT3=
EXTT4=
EXTT5=
EXTT6=
EXTT7=
EXTT8=
EXTT9=
EXTT10=
EXTT11=
EXTT12=
EXTT13=
EXTT14=
EXTT15=
EXTT16=
EXTT17=
EXTT18=
EXTT19=
PLAYORDER=
